<?xml version="1.0" encoding="utf-8"?>
<!-- Generator: Adobe Illustrator 15.0.0, SVG Export Plug-In . SVG Version: 6.00 Build 0)  -->
<!DOCTYPE svg PUBLIC "-//W3C//DTD SVG 1.1//EN" "http://www.w3.org/Graphics/SVG/1.1/DTD/svg11.dtd">
<svg version="1.1" id="Layer_1" xmlns="http://www.w3.org/2000/svg" xmlns:xlink="http://www.w3.org/1999/xlink" x="0px" y="0px"
	 width="64px" height="76px" viewBox="0 0 64 76" enable-background="new 0 0 64 76" xml:space="preserve">
<path fill="#81B3D2" d="M61.098,22.501h-0.104H36.313C50.125,15.602,51.229,11.25,50.721,8.816
	c-1.162-3.963-5.693-7.023-10.003-5.407c-5.569,2.089-7.137,10.388-8.644,16.387c-1.924-6.07-3.784-13.814-8.136-17.737
	c-1.261-1.138-3.095-2.264-5.763-2.028c-4.026,0.356-9.802,5.382-7.458,10.981c2.251,5.378,9.687,8.777,14.578,11.489H3.153H2.879
	C1.295,22.501,0,23.792,0,25.37v11.322c0,1.578,1.295,2.869,2.879,2.869h0.274v33.467v2.435V76h57.841v-0.539v-2.436V39.561h0.104
	c1.586,0,2.879-1.291,2.879-2.869V25.37C63.977,23.792,62.684,22.501,61.098,22.501z M42.413,5.944
	c2.103-0.31,4.981,1.299,5.255,3.209c0.393,2.756-3.4,5.255-5.086,6.421c-2.523,1.744-4.928,2.643-7.287,4.055
	C36.18,15.939,37.844,6.618,42.413,5.944z M19.531,15.912c-2.225-1.485-6.544-4.431-6.44-7.771c0.112-3.595,5.743-6.57,8.814-3.886
	c3.856,3.371,5.713,11.105,7.119,16.557C25.775,19.273,22.696,18.024,19.531,15.912z M25.503,73.025H6.136V39.561h19.368
	L25.503,73.025L25.503,73.025z M25.503,36.524H3.046V25.538h22.457V36.524z M35.66,36.524v3.037v33.467h-7.174V39.561v-3.037V25.538
	h7.174V36.524z M58.012,73.025H38.645V39.561h19.367V73.025z M60.932,36.524H38.645V25.538h22.287V36.524z"/>
</svg>
