<?xml version="1.0" encoding="utf-8"?>
<!-- Generator: Adobe Illustrator 15.0.0, SVG Export Plug-In . SVG Version: 6.00 Build 0)  -->
<!DOCTYPE svg PUBLIC "-//W3C//DTD SVG 1.1//EN" "http://www.w3.org/Graphics/SVG/1.1/DTD/svg11.dtd">
<svg version="1.1" id="Layer_1" xmlns="http://www.w3.org/2000/svg" xmlns:xlink="http://www.w3.org/1999/xlink" x="0px" y="0px"
	 width="126px" height="17px" viewBox="0 0 126 17" enable-background="new 0 0 126 17" xml:space="preserve">
<polygon fill="#81B3D2" points="9.025,0 11.157,6.494 18.051,6.494 12.474,10.506 14.604,17 9.025,12.985 3.447,17 5.579,10.506 
	0,6.494 6.896,6.494 "/>
<polygon fill="#81B3D2" points="36.013,0 38.144,6.494 45.039,6.494 39.461,10.506 41.591,17 36.013,12.985 30.434,17 
	32.566,10.506 26.987,6.494 33.882,6.494 "/>
<polygon fill="#81B3D2" points="63,0 65.131,6.494 72.025,6.494 66.449,10.506 68.579,17 63,12.985 57.42,17 59.552,10.506 
	53.974,6.494 60.87,6.494 "/>
<polygon fill="#81B3D2" points="89.987,0 92.119,6.494 99.014,6.494 93.436,10.506 95.565,17 89.987,12.985 84.408,17 
	86.539,10.506 80.963,6.494 87.856,6.494 "/>
<polygon fill="#81B3D2" points="116.976,0 119.105,6.493 126,6.493 120.424,10.506 122.554,17 116.976,12.985 111.396,17 
	113.527,10.506 107.948,6.493 114.845,6.493 "/>
</svg>
